<svg width="80" height="80" viewBox="0 0 80 80" fill="none" xmlns="http://www.w3.org/2000/svg">
<path d="M78.8395 1.2C78.0901 0.455 77.0763 0.0368328 76.0195 0.0368328C74.9628 0.0368328 73.949 0.455 73.1995 1.2L59.6795 14.4L54.7995 9.6C54.041 8.8574 53.0185 8.44653 51.9571 8.45778C50.8956 8.46903 49.8821 8.90148 49.1395 9.66C48.3969 10.4185 47.986 11.441 47.9973 12.5024C48.0085 13.5639 48.441 14.5774 49.1995 15.32L56.8795 22.84C57.6272 23.5729 58.6325 23.9834 59.6795 23.9834C60.7265 23.9834 61.7318 23.5729 62.4795 22.84L78.7995 6.84C79.5499 6.09585 79.9752 5.085 79.9827 4.02825C79.9902 2.9715 79.5792 1.95472 78.8395 1.2Z" fill="#B8FF5E"/>
<path fill-rule="evenodd" clip-rule="evenodd" d="M65.1716 29.1716C65.9217 28.4214 66.9391 28 68 28C69.0609 28 70.0783 28.4214 70.8284 29.1716C71.5786 29.9217 72 30.9391 72 32V68C72 71.1826 70.7357 74.2349 68.4853 76.4853C66.2348 78.7357 63.1826 80 60 80H12C8.8174 80 5.76516 78.7357 3.51472 76.4853C1.26428 74.2349 0 71.1826 0 68V20C0 16.8174 1.26428 13.7652 3.51472 11.5147C5.76516 9.26429 8.8174 8 12 8H36C37.0609 8 38.0783 8.42143 38.8284 9.17158C39.5786 9.92172 40 10.9391 40 12C40 13.0609 39.5786 14.0783 38.8284 14.8284C38.0783 15.5786 37.0609 16 36 16H12C10.9391 16 9.92172 16.4214 9.17157 17.1716C8.42143 17.9217 8 18.9391 8 20V42.4L13.92 36.48C16.0103 34.4062 18.8355 33.2425 21.78 33.2425C24.7245 33.2425 27.5497 34.4062 29.64 36.48L39.56 46.44L42.36 43.64C43.3898 42.6035 44.6144 41.781 45.9633 41.2197C47.3123 40.6584 48.7589 40.3694 50.22 40.3694C51.6811 40.3694 53.1277 40.6584 54.4767 41.2197C55.8256 41.781 57.0502 42.6035 58.08 43.64L64 49.56V32C64 30.9391 64.4214 29.9217 65.1716 29.1716ZM9.17157 70.8284C9.92172 71.5786 10.9391 72 12 72H53.8L36.64 54.8L23.96 42.12C23.3724 41.56 22.5917 41.2476 21.78 41.2476C20.9683 41.2476 20.1876 41.56 19.6 42.12L8 53.72V68C8 69.0609 8.42143 70.0783 9.17157 70.8284ZM63.28 70.12C63.7418 69.5092 63.9942 68.7657 64 68V60.88L52.44 49.2C51.8554 48.6187 51.0645 48.2923 50.24 48.2923C49.4155 48.2923 48.6246 48.6187 48.04 49.2L45.24 52L63.28 70.12Z" fill="white"/>
</svg>
