<svg width="80" height="80" viewBox="0 0 80 80" fill="none" xmlns="http://www.w3.org/2000/svg">
<path d="M68 32C66.9391 32 65.9217 32.4214 65.1716 33.1716C64.4214 33.9217 64 34.9391 64 36V49.52L58.08 43.6C55.9897 41.5262 53.1645 40.3625 50.22 40.3625C47.2755 40.3625 44.4503 41.5262 42.36 43.6L39.56 46.44L29.64 36.48C27.5497 34.4062 24.7245 33.2425 21.78 33.2425C18.8355 33.2425 16.0103 34.4062 13.92 36.48L8 42.44V20C8 18.9391 8.42143 17.9217 9.17157 17.1716C9.92172 16.4214 10.9391 16 12 16H44C45.0609 16 46.0783 15.5786 46.8284 14.8284C47.5786 14.0783 48 13.0609 48 12C48 10.9391 47.5786 9.92172 46.8284 9.17157C46.0783 8.42143 45.0609 8 44 8H12C8.8174 8 5.76516 9.26428 3.51472 11.5147C1.26428 13.7652 0 16.8174 0 20V68.88C0.0105402 71.826 1.18549 74.6483 3.26862 76.7314C5.35174 78.8145 8.17404 79.9895 11.12 80H60.88C61.9639 79.9913 63.0412 79.8298 64.08 79.52C66.3897 78.8721 68.4231 77.4844 69.8683 75.5696C71.3134 73.6549 72.0903 71.3189 72.08 68.92V36C72.0801 35.4679 71.9741 34.9412 71.7681 34.4506C71.562 33.96 71.2602 33.5154 70.8803 33.1429C70.5003 32.7704 70.0499 32.4775 69.5553 32.2812C69.0607 32.085 68.532 31.9894 68 32ZM12 72C10.9391 72 9.92172 71.5786 9.17157 70.8284C8.42143 70.0783 8 69.0609 8 68V53.72L19.56 42.16C20.1446 41.5787 20.9355 41.2523 21.76 41.2523C22.5845 41.2523 23.3754 41.5787 23.96 42.16L53.84 72H12ZM64 68C63.9743 68.7745 63.7242 69.525 63.28 70.16L45.2 52L48.04 49.2C48.3268 48.9073 48.6691 48.6748 49.0468 48.5161C49.4246 48.3573 49.8302 48.2756 50.24 48.2756C50.6498 48.2756 51.0554 48.3573 51.4332 48.5161C51.8109 48.6748 52.1532 48.9073 52.44 49.2L64 60.84V68ZM76 8H72V4C72 2.93913 71.5786 1.92172 70.8284 1.17157C70.0783 0.421427 69.0609 0 68 0C66.9391 0 65.9217 0.421427 65.1716 1.17157C64.4214 1.92172 64 2.93913 64 4V8H60C58.9391 8 57.9217 8.42143 57.1716 9.17157C56.4214 9.92172 56 10.9391 56 12C56 13.0609 56.4214 14.0783 57.1716 14.8284C57.9217 15.5786 58.9391 16 60 16H64V20C64 21.0609 64.4214 22.0783 65.1716 22.8284C65.9217 23.5786 66.9391 24 68 24C69.0609 24 70.0783 23.5786 70.8284 22.8284C71.5786 22.0783 72 21.0609 72 20V16H76C77.0609 16 78.0783 15.5786 78.8284 14.8284C79.5786 14.0783 80 13.0609 80 12C80 10.9391 79.5786 9.92172 78.8284 9.17157C78.0783 8.42143 77.0609 8 76 8Z" fill="white"/>
</svg>
