<svg width="80" height="80" viewBox="0 0 80 80" fill="none" xmlns="http://www.w3.org/2000/svg">
<path d="M78.84 1.19998C78.0905 0.454971 77.0767 0.0368042 76.02 0.0368042C74.9633 0.0368042 73.9494 0.454971 73.2 1.19998L59.68 14.4L54.8 9.59998C54.0415 8.85737 53.019 8.4465 51.9576 8.45775C50.8961 8.469 49.8826 8.90146 49.14 9.65998C48.3974 10.4185 47.9865 11.4409 47.9978 12.5024C48.009 13.5639 48.4415 14.5774 49.2 15.32L56.88 22.84C57.6277 23.5729 58.633 23.9834 59.68 23.9834C60.727 23.9834 61.7323 23.5729 62.48 22.84L78.8 6.83998C79.5503 6.09582 79.9757 5.08498 79.9832 4.02822C79.9907 2.97147 79.5797 1.9547 78.84 1.19998ZM68 28C66.9391 28 65.9217 28.4214 65.1716 29.1715C64.4214 29.9217 64 30.9391 64 32V49.56L58.08 43.64C57.0502 42.6035 55.8256 41.781 54.4767 41.2197C53.1277 40.6583 51.6811 40.3694 50.22 40.3694C48.7589 40.3694 47.3123 40.6583 45.9633 41.2197C44.6144 41.781 43.3898 42.6035 42.36 43.64L39.56 46.44L29.64 36.48C27.5497 34.4062 24.7245 33.2425 21.78 33.2425C18.8355 33.2425 16.0103 34.4062 13.92 36.48L8 42.4V20C8 18.9391 8.42143 17.9217 9.17157 17.1715C9.92172 16.4214 10.9391 16 12 16H36C37.0609 16 38.0783 15.5785 38.8284 14.8284C39.5786 14.0783 40 13.0608 40 12C40 10.9391 39.5786 9.92169 38.8284 9.17155C38.0783 8.4214 37.0609 7.99998 36 7.99998H12C8.8174 7.99998 5.76516 9.26426 3.51472 11.5147C1.26428 13.7651 0 16.8174 0 20V68C0 71.1826 1.26428 74.2348 3.51472 76.4853C5.76516 78.7357 8.8174 80 12 80H60C63.1826 80 66.2348 78.7357 68.4853 76.4853C70.7357 74.2348 72 71.1826 72 68V32C72 30.9391 71.5786 29.9217 70.8284 29.1715C70.0783 28.4214 69.0609 28 68 28ZM12 72C10.9391 72 9.92172 71.5786 9.17157 70.8284C8.42143 70.0783 8 69.0608 8 68V53.72L19.6 42.12C20.1876 41.56 20.9683 41.2476 21.78 41.2476C22.5917 41.2476 23.3724 41.56 23.96 42.12L36.64 54.8L53.8 72H12ZM64 68C63.9942 68.7657 63.7418 69.5091 63.28 70.12L45.24 52L48.04 49.2C48.6246 48.6186 49.4155 48.2923 50.24 48.2923C51.0645 48.2923 51.8554 48.6186 52.44 49.2L64 60.88V68Z" fill="#636363"/>
</svg>
