<svg width="80" height="80" viewBox="0 0 80 80" fill="none" xmlns="http://www.w3.org/2000/svg">
<path d="M12.4 56C11.2 54 8.8 53.6 6.8 54.4C4.8 55.6 4.4 58 5.2 60C6.4 62 8.8 62.4 10.8 61.6C12.8 60.4 13.2 58 12.4 56V56ZM10.8 18.4C8.8 17.6 6.4 18 5.2 20C4.4 22 4.8 24.4 6.8 25.6C8.8 26.4 11.2 26 12.4 24C13.2 22 12.8 19.6 10.8 18.4ZM73.2 25.6C75.2 24.4 75.6 22 74.8 20C73.6 18 71.2 17.6 69.2 18.4C67.2 19.6 66.8 22 67.6 24C68.8 26 71.2 26.4 73.2 25.6ZM8 40C8 37.6 6.4 36 4 36C1.6 36 0 37.6 0 40C0 42.4 1.6 44 4 44C6.4 44 8 42.4 8 40ZM20.8 67.2C18.8 67.6 17.2 70 18 72C18.4 74 20.8 75.6 22.8 74.8C24.8 74.4 26.4 72 25.6 70C25.2 68 23.2 66.8 20.8 67.2ZM76 36C73.6 36 72 37.6 72 40C72 42.4 73.6 44 76 44C78.4 44 80 42.4 80 40C80 37.6 78.4 36 76 36ZM73.2 54.4C71.2 53.2 68.8 54 67.6 56C66.4 58 67.2 60.4 69.2 61.6C71.2 62.8 73.6 62 74.8 60C75.6 58 75.2 55.6 73.2 54.4ZM60 5.2C58 4 55.6 4.8 54.4 6.8C53.2 8.8 54 11.2 56 12.4C58 13.6 60.4 12.8 61.6 10.8C62.4 8.8 62 6.4 60 5.2V5.2ZM59.2 67.2C57.2 66.8 54.8 68 54.4 70C54 72 55.2 74.4 57.2 74.8C59.2 75.2 61.6 74 62 72C62.4 70 61.2 68 59.2 67.2ZM40 72C37.6 72 36 73.6 36 76C36 78.4 37.6 80 40 80C42.4 80 44 78.4 44 76C44 73.6 42.4 72 40 72ZM40 0C37.6 0 36 1.6 36 4C36 6.4 37.6 8 40 8C42.4 8 44 6.4 44 4C44 1.6 42.4 0 40 0Z" fill="white"/>
<path d="M12.4 56C11.2 54 8.8 53.6 6.8 54.4C4.8 55.6 4.4 58 5.2 60C6.4 62 8.8 62.4 10.8 61.6C12.8 60.4 13.2 58 12.4 56V56ZM10.8 18.4C8.8 17.6 6.4 18 5.2 20C4.4 22 4.8 24.4 6.8 25.6C8.8 26.4 11.2 26 12.4 24C13.2 22 12.8 19.6 10.8 18.4ZM73.2 25.6C75.2 24.4 75.6 22 74.8 20C73.6 18 71.2 17.6 69.2 18.4C67.2 19.6 66.8 22 67.6 24C68.8 26 71.2 26.4 73.2 25.6ZM8 40C8 37.6 6.4 36 4 36C1.6 36 0 37.6 0 40C0 42.4 1.6 44 4 44C6.4 44 8 42.4 8 40ZM20.8 67.2C18.8 67.6 17.2 70 18 72C18.4 74 20.8 75.6 22.8 74.8C24.8 74.4 26.4 72 25.6 70C25.2 68 23.2 66.8 20.8 67.2ZM76 36C73.6 36 72 37.6 72 40C72 42.4 73.6 44 76 44C78.4 44 80 42.4 80 40C80 37.6 78.4 36 76 36ZM73.2 54.4C71.2 53.2 68.8 54 67.6 56C66.4 58 67.2 60.4 69.2 61.6C71.2 62.8 73.6 62 74.8 60C75.6 58 75.2 55.6 73.2 54.4ZM60 5.2C58 4 55.6 4.8 54.4 6.8C53.2 8.8 54 11.2 56 12.4C58 13.6 60.4 12.8 61.6 10.8C62.4 8.8 62 6.4 60 5.2V5.2ZM59.2 67.2C57.2 66.8 54.8 68 54.4 70C54 72 55.2 74.4 57.2 74.8C59.2 75.2 61.6 74 62 72C62.4 70 61.2 68 59.2 67.2ZM40 72C37.6 72 36 73.6 36 76C36 78.4 37.6 80 40 80C42.4 80 44 78.4 44 76C44 73.6 42.4 72 40 72ZM40 0C37.6 0 36 1.6 36 4C36 6.4 37.6 8 40 8C42.4 8 44 6.4 44 4C44 1.6 42.4 0 40 0Z" fill="url(#paint0_angular_414_137)"/>
<defs>
<radialGradient id="paint0_angular_414_137" cx="0" cy="0" r="1" gradientUnits="userSpaceOnUse" gradientTransform="translate(40 40) rotate(-114.228) scale(43.8634)">
<stop stop-color="#DC3701"/>
<stop offset="1" stop-color="#DC3701" stop-opacity="0.25"/>
</radialGradient>
</defs>
</svg>
