<svg width="37" height="34" viewBox="0 0 37 34" fill="none" xmlns="http://www.w3.org/2000/svg">
<path d="M21.65 2.74C21.541 2.64645 21.4131 2.57749 21.2751 2.5378C21.137 2.49811 20.992 2.48863 20.85 2.51L7.85 4.51C7.61326 4.54592 7.39727 4.66559 7.24129 4.84726C7.0853 5.02894 6.99969 5.26055 7 5.5V15.85C6.53277 15.6218 6.01999 15.5021 5.5 15.5C4.80777 15.5 4.13108 15.7053 3.55551 16.0899C2.97993 16.4744 2.53133 17.0211 2.26642 17.6606C2.00152 18.3001 1.9322 19.0039 2.06725 19.6828C2.2023 20.3617 2.53564 20.9854 3.02513 21.4749C3.51461 21.9644 4.13825 22.2977 4.81719 22.4327C5.49612 22.5678 6.19985 22.4985 6.83939 22.2336C7.47894 21.9687 8.02556 21.5201 8.41015 20.9445C8.79473 20.3689 9 19.6922 9 19V11.36L20 9.67V13.85C19.5328 13.6218 19.02 13.5021 18.5 13.5C17.8078 13.5 17.1311 13.7053 16.5555 14.0899C15.9799 14.4744 15.5313 15.0211 15.2664 15.6606C15.0015 16.3001 14.9322 17.0039 15.0673 17.6828C15.2023 18.3617 15.5356 18.9854 16.0251 19.4749C16.5146 19.9644 17.1383 20.2977 17.8172 20.4327C18.4961 20.5678 19.1999 20.4985 19.8394 20.2336C20.4789 19.9687 21.0256 19.5201 21.4101 18.9445C21.7947 18.3689 22 17.6922 22 17V3.5C22 3.35556 21.9687 3.21283 21.9083 3.08163C21.8479 2.95044 21.7598 2.83388 21.65 2.74ZM5.5 20.5C5.20333 20.5 4.91332 20.412 4.66665 20.2472C4.41997 20.0824 4.22771 19.8481 4.11418 19.574C4.00065 19.2999 3.97095 18.9983 4.02882 18.7074C4.0867 18.4164 4.22956 18.1491 4.43934 17.9393C4.64912 17.7296 4.91639 17.5867 5.20737 17.5288C5.49834 17.4709 5.79994 17.5006 6.07403 17.6142C6.34812 17.7277 6.58238 17.92 6.74721 18.1666C6.91203 18.4133 7 18.7033 7 19C7 19.3978 6.84197 19.7794 6.56066 20.0607C6.27936 20.342 5.89783 20.5 5.5 20.5ZM18.5 18.5C18.2033 18.5 17.9133 18.412 17.6666 18.2472C17.42 18.0824 17.2277 17.8481 17.1142 17.574C17.0007 17.2999 16.9709 16.9983 17.0288 16.7074C17.0867 16.4164 17.2296 16.1491 17.4393 15.9393C17.6491 15.7296 17.9164 15.5867 18.2074 15.5288C18.4983 15.4709 18.7999 15.5006 19.074 15.6142C19.3481 15.7277 19.5824 15.92 19.7472 16.1666C19.912 16.4133 20 16.7033 20 17C20 17.3978 19.842 17.7794 19.5607 18.0607C19.2794 18.342 18.8978 18.5 18.5 18.5ZM20 7.64L9 9.33V6.33L20 4.67V7.64Z" fill="white"/>
<path d="M15.35 31.26C15.459 31.3535 15.5869 31.4225 15.7249 31.4622C15.863 31.5019 16.008 31.5113 16.15 31.49L29.15 29.49C29.3867 29.4541 29.6027 29.3344 29.7587 29.1527C29.9147 28.971 30.0003 28.7394 30 28.5L30 18.15C30.4672 18.3782 30.98 18.4978 31.5 18.5C32.1922 18.5 32.8689 18.2947 33.4445 17.9101C34.0201 17.5255 34.4687 16.9789 34.7336 16.3394C34.9985 15.6998 35.0678 14.9961 34.9327 14.3172C34.7977 13.6382 34.4644 13.0146 33.9749 12.5251C33.4854 12.0356 32.8617 11.7023 32.1828 11.5672C31.5039 11.4322 30.8001 11.5015 30.1606 11.7664C29.5211 12.0313 28.9744 12.4799 28.5899 13.0555C28.2053 13.631 28 14.3077 28 15L28 22.64L17 24.33L17 20.15C17.4672 20.3782 17.98 20.4978 18.5 20.5C19.1922 20.5 19.8689 20.2947 20.4445 19.9101C21.0201 19.5255 21.4687 18.9789 21.7336 18.3394C21.9985 17.6998 22.0678 16.9961 21.9327 16.3172C21.7977 15.6382 21.4644 15.0146 20.9749 14.5251C20.4854 14.0356 19.8617 13.7023 19.1828 13.5672C18.5039 13.4322 17.8001 13.5015 17.1606 13.7664C16.5211 14.0313 15.9744 14.4799 15.5899 15.0555C15.2053 15.631 15 16.3077 15 17L15 30.5C15 30.6444 15.0313 30.7871 15.0917 30.9183C15.1521 31.0495 15.2402 31.1661 15.35 31.26ZM31.5 13.5C31.7967 13.5 32.0867 13.5879 32.3334 13.7528C32.58 13.9176 32.7723 14.1519 32.8858 14.4259C32.9993 14.7 33.0291 15.0016 32.9712 15.2926C32.9133 15.5836 32.7704 15.8509 32.5607 16.0606C32.3509 16.2704 32.0836 16.4133 31.7926 16.4712C31.5017 16.529 31.2001 16.4993 30.926 16.3858C30.6519 16.2723 30.4176 16.08 30.2528 15.8333C30.088 15.5867 30 15.2966 30 15C30 14.6021 30.158 14.2206 30.4393 13.9393C30.7206 13.658 31.1022 13.5 31.5 13.5ZM18.5 15.5C18.7967 15.5 19.0867 15.5879 19.3334 15.7528C19.58 15.9176 19.7723 16.1519 19.8858 16.4259C19.9993 16.7 20.0291 17.0016 19.9712 17.2926C19.9133 17.5836 19.7704 17.8509 19.5607 18.0606C19.3509 18.2704 19.0836 18.4133 18.7926 18.4712C18.5017 18.529 18.2001 18.4993 17.926 18.3858C17.6519 18.2723 17.4176 18.08 17.2528 17.8333C17.088 17.5867 17 17.2966 17 17C17 16.6021 17.158 16.2206 17.4393 15.9393C17.7206 15.658 18.1022 15.5 18.5 15.5ZM17 26.36L28 24.67V27.67L17 29.33V26.36Z" fill="white"/>
</svg>
